<svg width="48" height="48" viewBox="0 0 48 48" fill="none" xmlns="http://www.w3.org/2000/svg">
<g clip-path="url(#clip0_403_14252)">
<path fill-rule="evenodd" clip-rule="evenodd" d="M25.2 4.57757C25.2 5.23997 24.6624 5.77757 24 5.77757C23.3376 5.77757 22.8 5.23997 22.8 4.57757V1.36797C22.8 0.705569 23.3376 0.167969 24 0.167969C24.6624 0.167969 25.2 0.705569 25.2 1.36797V4.57757ZM10.1472 11.5167C9.84 11.5167 9.53281 11.3983 9.29921 11.1647H9.2976L7.0288 8.89588C6.56 8.42708 6.56 7.66708 7.0288 7.19828C7.4976 6.72948 8.2576 6.72948 8.72641 7.19828L10.9952 9.46708C11.464 9.93588 11.464 10.6959 10.9952 11.1647C10.7616 11.3999 10.4544 11.5167 10.1472 11.5167ZM32.9248 10.1184C29.728 7.46398 25.48 6.39358 21.2736 7.17918C15.92 8.17918 11.6208 12.328 10.5728 17.5008C9.77761 21.4192 10.7312 25.2736 13.2576 28.352C14.5968 29.9808 15.3024 31.792 15.3024 33.5904V33.7952C15.3024 34.1312 15.4432 34.4336 15.6656 34.6512C15.44 35.1232 15.3024 35.6448 15.3024 36.2016C15.3024 37.1296 15.664 37.968 16.2416 38.608C15.664 39.248 15.3024 40.0864 15.3024 41.0144C15.3024 43.0032 16.92 44.6208 18.9088 44.6208H29.0928C31.0816 44.6208 32.6992 43.0032 32.6992 41.0144C32.6992 40.0864 32.3376 39.248 31.76 38.608C32.3376 37.968 32.6992 37.1296 32.6992 36.2016C32.6992 35.6448 32.5616 35.1232 32.336 34.6512C32.56 34.4336 32.6992 34.1312 32.6992 33.7952V33.5824C32.6992 31.7648 33.384 29.9824 34.6784 28.4304C36.6544 26.0608 37.6992 23.2 37.6992 20.1584C37.6992 16.2976 35.96 12.6384 32.9264 10.12L32.9248 10.1184ZM19.0912 22.8768C19.0912 22.4816 19.4464 22.16 19.8816 22.16C20.3168 22.16 20.672 22.4816 20.672 22.8768C20.672 23.272 20.3168 23.5936 19.8816 23.5936C19.4464 23.5936 19.0912 23.272 19.0912 22.8768ZM28.1168 23.5936C27.6816 23.5936 27.3264 23.272 27.3264 22.8768C27.3264 22.4816 27.6816 22.16 28.1168 22.16C28.552 22.16 28.9072 22.4816 28.9072 22.8768C28.9072 23.272 28.552 23.5936 28.1168 23.5936ZM23.0736 32.5936V25.9936H24.9264V32.5936H23.0736ZM29.0928 34.9936C29.7584 34.9936 30.2992 35.5344 30.2992 36.2C30.2992 36.8656 29.7584 37.4064 29.0928 37.4064H18.9088C18.2432 37.4064 17.7024 36.8656 17.7024 36.2C17.7024 35.5344 18.2432 34.9936 18.9088 34.9936H29.0928ZM29.0928 42.2208H18.9088C18.2432 42.2208 17.7024 41.68 17.7024 41.0144C17.7024 40.3488 18.2432 39.808 18.9088 39.808H29.0928C29.7584 39.808 30.2992 40.3488 30.2992 41.0144C30.2992 41.68 29.7584 42.2208 29.0928 42.2208ZM32.8352 26.8928C31.4064 28.6064 30.5568 30.56 30.3488 32.5936H27.3264V25.9936H28.1168C29.8768 25.9936 31.3072 24.5952 31.3072 22.8768C31.3072 21.1584 29.8752 19.76 28.1168 19.76C26.3584 19.76 24.9264 21.1584 24.9264 22.8768V23.5936H23.0736V22.8768C23.0736 21.1584 21.6416 19.76 19.8832 19.76C18.1248 19.76 16.6928 21.1584 16.6928 22.8768C16.6928 24.5952 18.1248 25.9936 19.8832 25.9936H20.6736V32.5936H17.648C17.432 30.576 16.5664 28.6 15.112 26.8272C13.0512 24.3168 12.2752 21.1744 12.9248 17.976C13.7808 13.7504 17.312 10.3584 21.7136 9.53758C25.2192 8.87838 28.7472 9.76798 31.392 11.9632C33.8752 14.0256 35.2976 17.0112 35.2976 20.1568C35.2976 22.6304 34.4464 24.9584 32.8336 26.8928H32.8352ZM26.5008 45.432H21.5008C20.8384 45.432 20.3008 45.9696 20.3008 46.632C20.3008 47.2944 20.8384 47.832 21.5008 47.832H26.5008C27.1632 47.832 27.7008 47.2944 27.7008 46.632C27.7008 45.9696 27.1632 45.432 26.5008 45.432ZM1.2 22.968H4.40962C5.07202 22.968 5.60962 23.5056 5.60962 24.168C5.60962 24.8304 5.07202 25.368 4.40962 25.368H1.2C0.5376 25.368 0 24.8304 0 24.168C0 23.5056 0.5376 22.968 1.2 22.968ZM46.8 22.968H43.5904C42.928 22.968 42.3904 23.5056 42.3904 24.168C42.3904 24.8304 42.928 25.368 43.5904 25.368H46.8C47.4624 25.368 48 24.8304 48 24.168C48 23.5056 47.4624 22.968 46.8 22.968ZM38.7024 37.1727C38.2336 36.7039 37.4736 36.7039 37.0048 37.1727C36.536 37.6415 36.536 38.4015 37.0048 38.8703L39.2736 41.1391C39.5072 41.3727 39.8144 41.4911 40.1216 41.4911C40.4288 41.4911 40.736 41.3743 40.9696 41.1391C41.4384 40.6703 41.4384 39.9103 40.9696 39.4415L38.7008 37.1727H38.7024ZM7.03041 39.4415L9.29921 37.1727H9.2976C9.7664 36.7039 10.5264 36.7039 10.9952 37.1727C11.464 37.6415 11.464 38.4015 10.9952 38.8703L8.72641 41.1391C8.4928 41.3743 8.18561 41.4911 7.87841 41.4911C7.57121 41.4911 7.26401 41.3727 7.03041 41.1391C6.56161 40.6703 6.56161 39.9103 7.03041 39.4415ZM39.2736 7.19828L37.0048 9.46708C36.536 9.93588 36.536 10.6959 37.0048 11.1647C37.2384 11.3983 37.5456 11.5167 37.8528 11.5167C38.16 11.5167 38.4672 11.3999 38.7008 11.1647L40.9696 8.89588C41.4384 8.42708 41.4384 7.66708 40.9696 7.19828C40.5008 6.72948 39.7408 6.72948 39.272 7.19828H39.2736Z" fill="#333333"/>
</g>
<defs>
<clipPath id="clip0_403_14252">
<rect width="48" height="48" fill="white"/>
</clipPath>
</defs>
</svg>
